<svg width="226" height="55" viewBox="0 0 226 55" fill="none" xmlns="http://www.w3.org/2000/svg">
<path d="M56.868 43.504C54.964 43.504 53.242 43.182 51.702 42.538C50.19 41.866 48.888 40.9 47.796 39.64C46.732 38.352 45.906 36.77 45.318 34.894C44.73 32.99 44.436 30.806 44.436 28.342C44.436 25.878 44.73 23.708 45.318 21.832C45.906 19.956 46.732 18.374 47.796 17.086C48.888 15.798 50.19 14.832 51.702 14.188C53.242 13.516 54.964 13.18 56.868 13.18C58.744 13.18 60.452 13.516 61.992 14.188C63.532 14.832 64.834 15.798 65.898 17.086C66.99 18.374 67.83 19.956 68.418 21.832C69.006 23.708 69.3 25.878 69.3 28.342C69.3 30.806 69.006 32.99 68.418 34.894C67.83 36.77 66.99 38.352 65.898 39.64C64.834 40.9 63.532 41.866 61.992 42.538C60.452 43.182 58.744 43.504 56.868 43.504ZM56.868 40.354C58.128 40.354 59.29 40.13 60.354 39.682C61.418 39.234 62.328 38.59 63.084 37.75C63.868 36.91 64.47 35.902 64.89 34.726C65.31 33.55 65.52 32.234 65.52 30.778V25.906C65.52 24.45 65.31 23.134 64.89 21.958C64.47 20.782 63.868 19.774 63.084 18.934C62.328 18.094 61.418 17.45 60.354 17.002C59.29 16.554 58.128 16.33 56.868 16.33C55.608 16.33 54.446 16.554 53.382 17.002C52.318 17.45 51.394 18.094 50.61 18.934C49.854 19.774 49.266 20.782 48.846 21.958C48.426 23.134 48.216 24.45 48.216 25.906V30.778C48.216 32.234 48.426 33.55 48.846 34.726C49.266 35.902 49.854 36.91 50.61 37.75C51.394 38.59 52.318 39.234 53.382 39.682C54.446 40.13 55.608 40.354 56.868 40.354ZM75.3063 43V21.328H78.6663V24.856H78.8343C79.3663 23.624 80.1083 22.644 81.0603 21.916C82.0403 21.188 83.3423 20.824 84.9663 20.824C87.2063 20.824 88.9703 21.552 90.2583 23.008C91.5743 24.436 92.2323 26.466 92.2323 29.098V43H88.8723V29.686C88.8723 25.794 87.2343 23.848 83.9583 23.848C83.2863 23.848 82.6283 23.932 81.9843 24.1C81.3683 24.268 80.8083 24.52 80.3043 24.856C79.8003 25.192 79.3943 25.626 79.0863 26.158C78.8063 26.662 78.6663 27.264 78.6663 27.964V43H75.3063ZM107.325 43.504C105.841 43.504 104.497 43.238 103.293 42.706C102.117 42.174 101.095 41.418 100.227 40.438C99.3874 39.43 98.7294 38.24 98.2534 36.868C97.8054 35.468 97.5814 33.9 97.5814 32.164C97.5814 30.456 97.8054 28.902 98.2534 27.502C98.7294 26.102 99.3874 24.912 100.227 23.932C101.095 22.924 102.117 22.154 103.293 21.622C104.497 21.09 105.841 20.824 107.325 20.824C108.781 20.824 110.083 21.09 111.231 21.622C112.379 22.154 113.359 22.896 114.171 23.848C114.983 24.772 115.599 25.878 116.019 27.166C116.467 28.454 116.691 29.868 116.691 31.408V33.004H101.109V34.012C101.109 34.936 101.249 35.804 101.529 36.616C101.837 37.4 102.257 38.086 102.789 38.674C103.349 39.262 104.021 39.724 104.805 40.06C105.617 40.396 106.527 40.564 107.535 40.564C108.907 40.564 110.097 40.242 111.105 39.598C112.141 38.954 112.939 38.03 113.499 36.826L115.893 38.548C115.193 40.032 114.101 41.236 112.617 42.16C111.133 43.056 109.369 43.504 107.325 43.504ZM107.325 23.638C106.401 23.638 105.561 23.806 104.805 24.142C104.049 24.45 103.391 24.898 102.831 25.486C102.299 26.074 101.879 26.774 101.571 27.586C101.263 28.37 101.109 29.238 101.109 30.19V30.484H113.079V30.022C113.079 28.09 112.547 26.55 111.483 25.402C110.447 24.226 109.061 23.638 107.325 23.638ZM130.386 43.504C128.006 43.504 125.976 43.056 124.296 42.16C122.616 41.236 121.188 39.976 120.012 38.38L122.616 36.196C123.652 37.568 124.8 38.618 126.06 39.346C127.32 40.046 128.804 40.396 130.512 40.396C132.612 40.396 134.208 39.892 135.3 38.884C136.42 37.876 136.98 36.532 136.98 34.852C136.98 33.452 136.56 32.374 135.72 31.618C134.88 30.862 133.494 30.26 131.562 29.812L129.168 29.266C126.48 28.65 124.422 27.726 122.994 26.494C121.594 25.234 120.894 23.47 120.894 21.202C120.894 19.914 121.132 18.766 121.608 17.758C122.084 16.75 122.742 15.91 123.582 15.238C124.45 14.566 125.472 14.062 126.648 13.726C127.852 13.362 129.168 13.18 130.596 13.18C132.808 13.18 134.698 13.586 136.266 14.398C137.862 15.21 139.206 16.4 140.298 17.968L137.652 19.9C136.84 18.78 135.86 17.898 134.712 17.254C133.564 16.61 132.136 16.288 130.428 16.288C128.552 16.288 127.068 16.694 125.976 17.506C124.912 18.29 124.38 19.48 124.38 21.076C124.38 22.476 124.828 23.54 125.724 24.268C126.648 24.968 128.034 25.528 129.882 25.948L132.276 26.494C135.16 27.138 137.246 28.118 138.534 29.434C139.822 30.75 140.466 32.5 140.466 34.684C140.466 36.028 140.228 37.246 139.752 38.338C139.304 39.43 138.646 40.354 137.778 41.11C136.91 41.866 135.846 42.454 134.586 42.874C133.354 43.294 131.954 43.504 130.386 43.504ZM154.286 43.504C152.774 43.504 151.416 43.238 150.212 42.706C149.008 42.174 147.986 41.418 147.146 40.438C146.334 39.458 145.704 38.268 145.256 36.868C144.836 35.468 144.626 33.9 144.626 32.164C144.626 30.428 144.836 28.86 145.256 27.46C145.704 26.06 146.334 24.87 147.146 23.89C147.986 22.91 149.008 22.154 150.212 21.622C151.416 21.09 152.774 20.824 154.286 20.824C156.442 20.824 158.164 21.3 159.452 22.252C160.768 23.176 161.748 24.394 162.392 25.906L159.578 27.334C159.186 26.214 158.542 25.346 157.646 24.73C156.75 24.114 155.63 23.806 154.286 23.806C153.278 23.806 152.396 23.974 151.64 24.31C150.884 24.618 150.254 25.066 149.75 25.654C149.246 26.214 148.868 26.9 148.616 27.712C148.364 28.496 148.238 29.364 148.238 30.316V34.012C148.238 35.916 148.742 37.484 149.75 38.716C150.786 39.92 152.298 40.522 154.286 40.522C157.002 40.522 158.962 39.262 160.166 36.742L162.602 38.38C161.902 39.948 160.852 41.194 159.452 42.118C158.08 43.042 156.358 43.504 154.286 43.504ZM167.345 43V21.328H170.705V25.318H170.915C171.307 24.282 172.007 23.358 173.015 22.546C174.023 21.734 175.409 21.328 177.173 21.328H178.475V24.688H176.501C174.681 24.688 173.253 25.038 172.217 25.738C171.209 26.41 170.705 27.264 170.705 28.3V43H167.345ZM190.752 43.504C189.296 43.504 187.966 43.238 186.762 42.706C185.558 42.174 184.522 41.418 183.654 40.438C182.814 39.43 182.156 38.24 181.68 36.868C181.204 35.468 180.966 33.9 180.966 32.164C180.966 30.456 181.204 28.902 181.68 27.502C182.156 26.102 182.814 24.912 183.654 23.932C184.522 22.924 185.558 22.154 186.762 21.622C187.966 21.09 189.296 20.824 190.752 20.824C192.208 20.824 193.524 21.09 194.7 21.622C195.904 22.154 196.94 22.924 197.808 23.932C198.676 24.912 199.348 26.102 199.824 27.502C200.3 28.902 200.538 30.456 200.538 32.164C200.538 33.9 200.3 35.468 199.824 36.868C199.348 38.24 198.676 39.43 197.808 40.438C196.94 41.418 195.904 42.174 194.7 42.706C193.524 43.238 192.208 43.504 190.752 43.504ZM190.752 40.522C192.572 40.522 194.056 39.962 195.204 38.842C196.352 37.722 196.926 36.014 196.926 33.718V30.61C196.926 28.314 196.352 26.606 195.204 25.486C194.056 24.366 192.572 23.806 190.752 23.806C188.932 23.806 187.448 24.366 186.3 25.486C185.152 26.606 184.578 28.314 184.578 30.61V33.718C184.578 36.014 185.152 37.722 186.3 38.842C187.448 39.962 188.932 40.522 190.752 40.522ZM209.634 43C208.458 43 207.562 42.678 206.946 42.034C206.358 41.362 206.064 40.522 206.064 39.514V11.92H209.424V40.06H212.616V43H209.634ZM220.872 43C219.696 43 218.8 42.678 218.184 42.034C217.596 41.362 217.302 40.522 217.302 39.514V11.92H220.662V40.06H223.854V43H220.872Z" fill="#CFC6FF"/>
<rect x="9.59998" width="9.6" height="44.8" fill="#C4B9FF"/>
<path d="M22.4 19.2H25.6V37.1538L22.4 38.4V19.2Z" fill="#D9D2FF"/>
<rect x="22.4" y="3.20001" width="3.2" height="12.8" fill="#D9D2FF"/>
<path d="M9.59998 41.6L32 35.2V44.8H9.59998V41.6Z" fill="#CFC6FF"/>
<path d="M0 9.6L9.6 0H19.2V6.4L0 9.6Z" fill="#CFC6FF"/>
<path d="M24 0L25.3857 2.4H22.6144L24 0Z" fill="#D9D2FF"/>
</svg>
