<svg width="236" height="43" viewBox="0 0 236 43" fill="none" xmlns="http://www.w3.org/2000/svg">
<circle cx="20.5" cy="21.5" r="20.5" fill="#EAE6FF"/>
<rect x="16.2947" y="8.26315" width="5.5579" height="25.9368" fill="#5D3DFF"/>
<path d="M23.7053 19.3789H25.5579V29.7732L23.7053 30.4947V19.3789Z" fill="#AF9FFF"/>
<rect x="23.7053" y="10.1158" width="1.85263" height="7.41053" fill="#AF9FFF"/>
<path d="M16.2947 32.3474L29.2632 28.6421V34.2H16.2947V32.3474Z" fill="#7B61FF"/>
<path d="M10.7368 13.821L16.2947 8.26315H21.8526V11.9684L10.7368 13.821Z" fill="#7B61FF"/>
<path d="M24.6316 8.26315L25.4338 9.65263H23.8294L24.6316 8.26315Z" fill="#AF9FFF"/>
<path d="M59.424 33.384C57.952 33.384 56.608 33.1387 55.392 32.648C54.176 32.1573 53.1413 31.432 52.288 30.472C51.4347 29.4907 50.7733 28.2853 50.304 26.856C49.8347 25.4053 49.6 23.7307 49.6 21.832C49.6 19.9333 49.8347 18.2693 50.304 16.84C50.7733 15.3893 51.4347 14.184 52.288 13.224C53.1413 12.2427 54.176 11.5067 55.392 11.016C56.608 10.5253 57.952 10.28 59.424 10.28C60.896 10.28 62.24 10.5253 63.456 11.016C64.672 11.5067 65.7067 12.2427 66.56 13.224C67.4133 14.184 68.0747 15.3893 68.544 16.84C69.0133 18.2693 69.248 19.9333 69.248 21.832C69.248 23.7307 69.0133 25.4053 68.544 26.856C68.0747 28.2853 67.4133 29.4907 66.56 30.472C65.7067 31.432 64.672 32.1573 63.456 32.648C62.24 33.1387 60.896 33.384 59.424 33.384ZM59.424 29.064C60.896 29.064 62.0373 28.584 62.848 27.624C63.68 26.664 64.096 25.288 64.096 23.496V20.168C64.096 18.376 63.68 17 62.848 16.04C62.0373 15.08 60.896 14.6 59.424 14.6C57.952 14.6 56.8 15.08 55.968 16.04C55.1573 17 54.752 18.376 54.752 20.168V23.496C54.752 25.288 55.1573 26.664 55.968 27.624C56.8 28.584 57.952 29.064 59.424 29.064ZM80.1238 22.44L77.9798 17.96H77.8838V33H73.3078V10.664H78.6198L84.7318 21.224L86.8758 25.704H86.9718V10.664H91.5478V33H86.2358L80.1238 22.44ZM96.464 33V10.664H111.664V14.984H101.328V19.56H110.192V23.848H101.328V28.68H111.664V33H96.464ZM123.134 33.384C121.171 33.384 119.507 33.0533 118.141 32.392C116.776 31.7093 115.614 30.8347 114.654 29.768L117.854 26.536C119.368 28.2427 121.235 29.096 123.454 29.096C124.648 29.096 125.534 28.8507 126.11 28.36C126.686 27.8693 126.974 27.2187 126.974 26.408C126.974 25.7893 126.803 25.2773 126.462 24.872C126.12 24.4453 125.427 24.1573 124.382 24.008L122.174 23.72C119.806 23.4213 118.067 22.7067 116.958 21.576C115.87 20.4453 115.326 18.9413 115.326 17.064C115.326 16.0613 115.518 15.144 115.902 14.312C116.286 13.48 116.83 12.7653 117.534 12.168C118.259 11.5707 119.134 11.112 120.158 10.792C121.203 10.4507 122.387 10.28 123.71 10.28C125.395 10.28 126.878 10.5467 128.158 11.08C129.438 11.6133 130.536 12.392 131.454 13.416L128.222 16.68C127.688 16.0613 127.038 15.56 126.27 15.176C125.523 14.7707 124.574 14.568 123.422 14.568C122.334 14.568 121.523 14.76 120.99 15.144C120.456 15.528 120.19 16.0613 120.19 16.744C120.19 17.512 120.392 18.0667 120.798 18.408C121.224 18.7493 121.907 18.9947 122.845 19.144L125.054 19.496C127.358 19.8587 129.064 20.5733 130.174 21.64C131.283 22.6853 131.838 24.1787 131.838 26.12C131.838 27.1867 131.646 28.168 131.262 29.064C130.878 29.96 130.312 30.728 129.566 31.368C128.84 32.008 127.934 32.5093 126.846 32.872C125.758 33.2133 124.52 33.384 123.134 33.384ZM144.894 33.384C143.38 33.384 142.014 33.1493 140.798 32.68C139.582 32.1893 138.548 31.4747 137.694 30.536C136.841 29.576 136.18 28.392 135.71 26.984C135.241 25.5547 135.006 23.8907 135.006 21.992C135.006 20.1147 135.241 18.4507 135.71 17C136.18 15.528 136.841 14.3013 137.694 13.32C138.548 12.3173 139.582 11.56 140.798 11.048C142.014 10.536 143.38 10.28 144.894 10.28C146.964 10.28 148.67 10.7067 150.014 11.56C151.358 12.392 152.436 13.7147 153.246 15.528L149.054 17.704C148.756 16.7653 148.286 16.0187 147.646 15.464C147.028 14.888 146.11 14.6 144.894 14.6C143.465 14.6 142.313 15.0693 141.438 16.008C140.585 16.9253 140.158 18.2693 140.158 20.04V23.624C140.158 25.3947 140.585 26.7493 141.438 27.688C142.313 28.6053 143.465 29.064 144.894 29.064C146.089 29.064 147.038 28.744 147.742 28.104C148.468 27.4427 149.001 26.6533 149.342 25.736L153.31 28.04C152.478 29.7467 151.38 31.0693 150.014 32.008C148.67 32.9253 146.964 33.384 144.894 33.384ZM161.578 33H156.714V10.664H167.306C168.33 10.664 169.258 10.8347 170.09 11.176C170.922 11.5173 171.626 12.008 172.202 12.648C172.799 13.2667 173.258 14.0133 173.578 14.888C173.898 15.7627 174.058 16.7333 174.058 17.8C174.058 19.3147 173.717 20.6373 173.034 21.768C172.373 22.8987 171.359 23.72 169.994 24.232L174.378 33H168.97L165.066 24.808H161.578V33ZM166.698 20.712C167.423 20.712 167.989 20.5307 168.394 20.168C168.821 19.784 169.034 19.2293 169.034 18.504V17.096C169.034 16.3707 168.821 15.8267 168.394 15.464C167.989 15.08 167.423 14.888 166.698 14.888H161.578V20.712H166.698ZM186.924 33.384C185.452 33.384 184.108 33.1387 182.892 32.648C181.676 32.1573 180.641 31.432 179.788 30.472C178.935 29.4907 178.273 28.2853 177.804 26.856C177.335 25.4053 177.1 23.7307 177.1 21.832C177.1 19.9333 177.335 18.2693 177.804 16.84C178.273 15.3893 178.935 14.184 179.788 13.224C180.641 12.2427 181.676 11.5067 182.892 11.016C184.108 10.5253 185.452 10.28 186.924 10.28C188.396 10.28 189.74 10.5253 190.956 11.016C192.172 11.5067 193.207 12.2427 194.06 13.224C194.913 14.184 195.575 15.3893 196.044 16.84C196.513 18.2693 196.748 19.9333 196.748 21.832C196.748 23.7307 196.513 25.4053 196.044 26.856C195.575 28.2853 194.913 29.4907 194.06 30.472C193.207 31.432 192.172 32.1573 190.956 32.648C189.74 33.1387 188.396 33.384 186.924 33.384ZM186.924 29.064C188.396 29.064 189.537 28.584 190.348 27.624C191.18 26.664 191.596 25.288 191.596 23.496V20.168C191.596 18.376 191.18 17 190.348 16.04C189.537 15.08 188.396 14.6 186.924 14.6C185.452 14.6 184.3 15.08 183.468 16.04C182.657 17 182.252 18.376 182.252 20.168V23.496C182.252 25.288 182.657 26.664 183.468 27.624C184.3 28.584 185.452 29.064 186.924 29.064ZM200.808 33V10.664H205.672V28.68H214.184V33H200.808ZM217.777 33V10.664H222.641V28.68H231.153V33H217.777Z" fill="#EAE5FF"/>
</svg>
